<?xml version="1.0" encoding="utf-8"?>
<!-- Generator: Adobe Illustrator 18.1.1, SVG Export Plug-In . SVG Version: 6.00 Build 0)  -->
<!DOCTYPE svg PUBLIC "-//W3C//DTD SVG 1.1//EN" "http://www.w3.org/Graphics/SVG/1.1/DTD/svg11.dtd">
<svg version="1.1" id="Layer_1" xmlns="http://www.w3.org/2000/svg" xmlns:xlink="http://www.w3.org/1999/xlink" x="0px" y="0px"
	 viewBox="-335.6 264.8 63.5 56.3" enable-background="new -335.6 264.8 63.5 56.3" xml:space="preserve">
<path d="M-273.1,302.5c-0.2-0.2-3.4-3.2-8.5-4.9c7.1-8.3,7.2-18.4,7.2-18.8l0-1.3l-1.3-0.1c0,0-0.3,0-0.7,0
	c-2.5,0-10.6,0.4-17.8,5.6c-1.4-10.3-8.3-17-8.7-17.3l-1-0.9l-1,0.9c-0.3,0.3-7.2,7-8.7,17.3c-7.2-5.2-15.3-5.6-17.8-5.6
	c-0.5,0-0.7,0-0.7,0l-1.3,0.1l0,1.3c0,0.5,0.1,10.6,7.2,18.8c-5.1,1.7-8.3,4.7-8.5,4.9l-1,0.9l0.9,1c0.2,0.3,6.1,7.1,15.5,7.9
	c0.5,0,1.1,0.1,1.6,0.1l0,0c2.2,0,4.2-0.4,6-1c-0.1,0.3-0.1,0.6-0.1,1c-0.3,5.3,7,8.5,7.4,8.6l0.6,0.2l0.6-0.2
	c0.3-0.1,7.6-3.3,7.4-8.6c0-0.3-0.1-0.7-0.1-1c1.8,0.6,3.8,1,6,1c0.5,0,1.1,0,1.6-0.1c9.4-0.8,15.2-7.6,15.5-7.9l0.9-1L-273.1,302.5
	z M-298.7,312.6c0.1,2.5-3.2,4.7-5.1,5.6c-1.9-0.9-5.2-3.1-5.1-5.6c0.1-1,0.6-2,1.4-2.9c1-1.2,2.4-2.1,3.5-2.7
	c0.1,0.1,0.2,0.1,0.2,0.2c0.1-0.1,0.2-0.1,0.2-0.2c1,0.6,2.4,1.5,3.5,2.7C-299.4,310.6-298.8,311.5-298.7,312.6z M-313.7,286.3
	c0.2,0.2,0.5,0.4,0.7,0.6c0.3,0.2,0.5,0.5,0.7,0.7c0.6,0.6,1.1,1.1,1.6,1.7c3.2,4,4.6,8.6,5.1,11.8c0,0.1,0.1,0.3,0.1,0.4
	c0.1,0.8,0.2,1.5,0.2,2.1c-0.1-0.1-0.2-0.1-0.2-0.2c0.1,0.1,0.2,0.2,0.2,0.3c0,0,0,0.1,0,0.1c-0.5,0-1.1,0-1.8-0.1
	c-0.1,0-0.1,0-0.2,0c-3.3-0.3-8.3-1.2-12.8-4.5c-0.5-0.4-1.1-0.8-1.6-1.3c-0.3-0.3-0.6-0.6-0.9-0.9c-0.1-0.1-0.2-0.2-0.3-0.4
	c-5.7-5.9-7.1-13.5-7.4-16.6C-327.2,280.3-319.9,281.2-313.7,286.3z M-294,286.3c6.2-5.1,13.5-6,16.7-6.1
	c-0.3,3.1-1.6,10.7-7.4,16.6c-0.1,0.1-0.2,0.2-0.3,0.4c-0.3,0.3-0.6,0.6-0.9,0.9c-0.5,0.5-1,0.9-1.6,1.3c-4.5,3.3-9.6,4.3-12.9,4.5
	c-0.1,0-0.1,0-0.2,0c-0.7,0.1-1.3,0.1-1.8,0.1c0,0,0-0.1,0-0.1c0.1-0.1,0.2-0.2,0.2-0.3c-0.1,0.1-0.2,0.2-0.2,0.2
	c0-0.6,0.1-1.3,0.2-2.1c0-0.1,0-0.3,0.1-0.5c0.5-3.2,1.8-7.8,5.1-11.8c0.5-0.6,1-1.2,1.6-1.7c0.2-0.2,0.5-0.5,0.7-0.7
	C-294.4,286.7-294.2,286.5-294,286.3z M-303.8,296.4c-1.1-3.6-3.2-7.8-7-11.3c0.5-8,5-14,7-16.3c2,2.3,6.5,8.3,7,16.3
	C-300.6,288.6-302.7,292.7-303.8,296.4z M-323.9,299.9c5.2,4.7,11.4,6.2,15.5,6.6c-0.3,0.3-0.6,0.5-0.9,0.9
	c-2.2,1.2-5.1,2.2-8.4,2.2c-0.5,0-0.9,0-1.4-0.1c-6.1-0.5-10.7-4.1-12.6-5.9C-330.1,302.6-327.4,300.9-323.9,299.9z M-299.3,306.6
	c4.2-0.4,10.4-1.9,15.5-6.6c3.5,0.9,6.3,2.7,7.7,3.7c-1.9,1.8-6.4,5.4-12.6,5.9c-0.4,0-0.9,0.1-1.4,0.1c-3.3,0-6.2-1-8.4-2.2
	C-298.7,307.1-299,306.8-299.3,306.6z"/>
</svg>
