<svg xmlns="http://www.w3.org/2000/svg" xmlns:xlink="http://www.w3.org/1999/xlink" version="1.1" id="Layer_1" x="0px" y="0px" width="40px" height="40px" viewBox="4.5 -9.0 90.0 121.5" enable-background="new 0 0 90 90" xml:space="preserve">
<path d="M86.552,57.832c-0.253-0.236-4.6-4.267-11.492-6.575c9.594-11.147,9.723-24.833,9.723-25.446l-0.003-1.792l-1.789-0.106  c0,0-0.341-0.02-0.965-0.02c-3.373,0-14.282,0.594-24.039,7.559C56.078,17.498,46.739,8.507,46.306,8.098L45,6.863l-1.306,1.234  c-0.433,0.409-9.772,9.4-11.681,23.354c-9.757-6.965-20.666-7.559-24.039-7.559c-0.623,0-0.964,0.02-0.964,0.02L5.217,24.02  l0.001,1.791c0.001,0.613,0.13,14.298,9.721,25.444c-6.892,2.307-11.237,6.341-11.489,6.577l-1.31,1.23l1.155,1.376  c0.328,0.392,8.2,9.608,20.896,10.686c0.712,0.061,1.434,0.092,2.147,0.092l0,0c2.983,0,5.726-0.522,8.163-1.301  c-0.093,0.424-0.153,0.858-0.177,1.306c-0.372,7.09,9.504,11.413,9.925,11.595L45,83.137l0.75-0.321  c0.421-0.182,10.297-4.505,9.925-11.595c-0.022-0.447-0.086-0.882-0.176-1.306c2.437,0.778,5.179,1.301,8.162,1.301  c0.715,0,1.438-0.031,2.146-0.092c12.696-1.077,20.569-10.294,20.897-10.686l1.155-1.376L86.552,57.832z M51.881,71.42  c0.174,3.324-4.374,6.3-6.881,7.552c-2.507-1.252-7.055-4.228-6.881-7.552c0.073-1.391,0.834-2.71,1.867-3.878  c1.398-1.58,3.292-2.873,4.697-3.666c0.099,0.085,0.205,0.173,0.316,0.265c0.112-0.092,0.218-0.18,0.316-0.265  c1.405,0.793,3.3,2.086,4.696,3.666C51.047,68.71,51.808,70.029,51.881,71.42z M31.681,36.005c0.316,0.263,0.636,0.517,0.948,0.797  c0.346,0.31,0.661,0.633,0.984,0.953c0.765,0.756,1.475,1.533,2.121,2.332c4.378,5.42,6.157,11.621,6.875,15.957  c0.033,0.199,0.069,0.406,0.098,0.599c0.168,1.112,0.262,2.068,0.316,2.843c-0.104-0.098-0.21-0.199-0.321-0.302  c0.113,0.129,0.221,0.25,0.327,0.369c0.004,0.059,0.01,0.127,0.014,0.183c-0.676-0.002-1.518-0.031-2.463-0.1  c-0.093-0.007-0.183-0.015-0.277-0.021c-4.421-0.351-11.232-1.669-17.339-6.084c-0.722-0.522-1.432-1.092-2.13-1.704  c-0.43-0.38-0.859-0.764-1.277-1.18c-0.157-0.155-0.296-0.317-0.447-0.474c-7.733-8.012-9.548-18.27-9.966-22.458  C13.409,27.877,23.321,29.068,31.681,36.005z M58.319,36.005c8.361-6.939,18.279-8.128,22.541-8.29  c-0.408,4.183-2.208,14.421-9.971,22.459c-0.15,0.157-0.289,0.318-0.445,0.473c-0.418,0.416-0.849,0.8-1.278,1.18  c-0.695,0.612-1.405,1.182-2.128,1.703c-6.117,4.422-12.938,5.739-17.358,6.087c-0.088,0.008-0.173,0.013-0.259,0.02  c-0.948,0.068-1.791,0.098-2.468,0.1c0.003-0.054,0.01-0.121,0.013-0.178c0.108-0.121,0.218-0.243,0.332-0.374  c-0.113,0.104-0.223,0.207-0.327,0.307c0.054-0.771,0.146-1.728,0.312-2.84c0.028-0.195,0.066-0.407,0.1-0.611  c0.714-4.331,2.488-10.524,6.882-15.953c0.646-0.799,1.359-1.575,2.123-2.331c0.323-0.32,0.64-0.644,0.984-0.953  C57.686,36.521,58.004,36.268,58.319,36.005z M45,49.558c-1.552-4.909-4.37-10.516-9.448-15.222  C36.254,23.514,42.288,15.392,45,12.265c2.715,3.129,8.747,11.25,9.448,22.071C49.371,39.042,46.553,44.648,45,49.558z   M17.941,54.347c6.981,6.337,15.352,8.357,20.967,8.956c-0.417,0.356-0.829,0.741-1.227,1.152c-2.96,1.561-6.856,2.961-11.343,2.961  c-0.608,0-1.221-0.026-1.825-0.078c-8.287-0.702-14.379-5.533-16.954-7.957C9.487,57.945,13.166,55.609,17.941,54.347z   M51.092,63.303c5.616-0.599,13.982-2.619,20.965-8.953c4.766,1.267,8.453,3.605,10.384,5.036  c-2.564,2.429-8.631,7.245-16.953,7.952c-0.605,0.052-1.218,0.078-1.826,0.078c-4.485,0-8.398-1.417-11.368-2.988  C51.904,64.029,51.5,63.652,51.092,63.303z"/></svg>